<svg xmlns="http://www.w3.org/2000/svg" xmlns:xlink="http://www.w3.org/1999/xlink" viewBox="0,0,256,256" width="48px" height="48px" fill-rule="nonzero"><g fill="none" fill-rule="nonzero" stroke="none" stroke-width="1" stroke-linecap="butt" stroke-linejoin="miter" stroke-miterlimit="10" stroke-dasharray="" stroke-dashoffset="0" font-family="none" font-weight="none" font-size="none" text-anchor="none" style="mix-blend-mode: normal"><g transform="scale(5.33333,5.33333)"><path d="M26,20c0.1,0 0.2,0 0.3,0c0.3,-0.1 0.5,-0.3 0.6,-0.5c0.1,-0.2 0.1,-0.5 0.1,-0.8c-0.2,-0.6 -1,-1.8 -2,-2.4c0,0.7 0,1.3 0,1.9c0,0.5 0,1 0,1.2c0.1,0.2 0.3,0.4 0.5,0.6c0.2,0 0.3,0 0.5,0M29.4,23c0.7,0 1.6,-0.1 2.3,-0.5c-0.5,-0.3 -1,-0.6 -1.5,-0.9c-0.4,-0.3 -0.9,-0.6 -1.1,-0.6h-0.1c-0.2,0 -0.4,0.1 -0.6,0.2c-0.2,0.1 -0.4,0.4 -0.4,0.6c-0.1,0.5 0.3,1.1 0.8,1.2c0.2,0 0.4,0 0.6,0M23,24.9c0.5,-0.2 1,-0.4 1.5,-0.6c0.5,-0.2 1,-0.4 1.2,-0.5c0.2,-0.2 0.3,-0.4 0.3,-0.7c0,-0.3 -0.1,-0.5 -0.3,-0.7c-0.1,-0.3 -0.4,-0.4 -0.7,-0.4c-0.2,0 -0.5,0.1 -0.7,0.3c-0.4,0.3 -1.1,1.5 -1.3,2.6M41.5,1c-0.7,0 -1.4,0.5 -1.5,1.3v0c-0.3,-0.2 -0.6,-0.3 -1,-0.3c-1.7,0 -2.9,0.2 -3.6,0.7c-0.9,0.5 -1.4,1.4 -1.4,2.3c0,0.1 0,0.1 0,0.2c-0.4,-0.1 -0.9,-0.2 -1.3,-0.2c-1.3,0 -2.4,0.7 -3.1,2c-0.4,0.7 -0.6,1.4 -0.6,2.2c0,2.6 2.2,4.6 4.5,6.6c2.7,2.4 3.9,3.8 3.3,4.8c-0.2,0.4 -0.4,0.4 -0.4,0.4c-0.1,0 -0.2,0 -0.3,0c-0.1,0 -0.3,0 -0.5,-0.1c0,-0.6 -0.1,-1.1 -0.2,-1.6c-0.2,-0.6 -0.5,-1.2 -1,-1.7c-0.4,-0.5 -1,-0.7 -1.5,-0.9c-0.1,0 -0.2,-0.1 -0.4,-0.1c-0.3,0 -0.7,0.2 -0.8,0.5c-0.3,0.4 -0.2,0.9 0.2,1.3c0.2,0.2 0.4,0.4 0.5,0.6c0.1,0.2 0.1,0.3 0.1,0.5c-0.2,-0.1 -0.5,-0.3 -0.7,-0.4c-0.8,-0.5 -1.4,-0.9 -1.9,-1c0,-0.1 -0.1,-0.2 -0.1,-0.3c-0.5,-1.5 -2.1,-3.7 -4.3,-4.5c-1,-3.5 -3.3,-4.3 -5.1,-4.3c-4.6,0 -5.4,4.9 -6,8.5c-0.2,1.4 -0.7,4 -1.3,4.5c0,-0.2 -0.1,-0.5 -0.1,-1c0,-1.1 -0.3,-4 -3,-4c-1.6,0 -2.4,1.1 -2.8,1.7c-0.2,-0.2 -0.3,-0.4 -0.4,-0.6c-0.3,-0.6 -1,-1.1 -1.7,-1.1c0,-0.1 -0.1,-0.3 -0.1,-0.5c0,-0.8 -0.7,-1.5 -1.5,-1.5c-0.7,0 -1.2,0.4 -1.4,1.1c-0.7,0.2 -1.1,0.7 -1.1,1.4c0,0.8 0.7,1.5 1.5,1.5c0.1,0 0.2,0 0.3,0c0.1,0.1 0.2,0.1 0.2,0.2c0,0.2 0.1,0.5 0.2,0.7c1,1.9 2.5,2.7 3,2.9c0.4,0.1 0.8,0.2 1.2,0.2c0.7,0 1.3,-0.2 1.8,-0.5c0.3,1.5 1.1,3.5 3.8,3.5c4.1,0 4.9,-4.6 5.4,-7.9c0.6,-3.4 1,-5.1 2,-5.1c0.3,0 0.7,0 1.1,0.9c-0.4,0.2 -0.7,0.5 -1,0.8c-0.5,0.5 -0.8,1.1 -1,1.7c-0.2,0.6 -0.1,1.2 -0.1,1.7c0.1,0.5 0.5,0.8 0.9,0.9c0,0 0,0 0.1,0c0.5,0 0.9,-0.3 1,-0.8c0.1,-0.3 0.2,-0.6 0.3,-0.8c0.1,-0.1 0.2,-0.2 0.3,-0.3c0,0.3 0,0.6 0,0.9c0,0.9 0,1.5 0.1,2c-1,1 -2.2,3 -2.2,5.2c-1.3,0.9 -2.2,1.9 -2.7,3c-0.5,1.2 -0.5,2.5 0.1,3.7c0.8,1.9 2.5,2.9 4.9,2.9c1.8,0 3.8,-0.5 5.7,-1.1c1.7,-0.5 3.3,-0.9 4.3,-0.9c0.2,0 0.4,0 0.6,0.1c-0.2,0.1 -0.5,0.3 -1,0.6c-1.1,0.6 -3.6,2 -2.5,4.5c0.7,1.6 2.5,1.8 3.6,1.8h0.1v0c-0.1,0.2 -0.2,0.3 -0.4,0.6c-0.4,0.4 -0.6,0.8 -0.6,1.3c-0.1,0 -0.3,0.1 -0.5,0.1c-0.8,0 -1.5,0.7 -1.5,1.5c0,0.7 0.4,1.2 1.1,1.4c0.2,0.6 0.8,1.1 1.4,1.1c0.8,0 1.5,-0.7 1.5,-1.5v-0.3c0.1,-0.1 0.1,-0.1 0.2,-0.2c0.5,0 0.9,-0.2 1.2,-0.6c1.7,-1.7 1.6,-3.3 1.6,-4.1c0,-1.3 -0.9,-2.4 -2,-2.9c1.3,-0.9 2.7,-2.5 1.6,-4.8c-0.8,-1.7 -2.2,-2.6 -4.4,-2.6c-1.7,0 -3.5,0.5 -5.3,1c-1.8,0.5 -3.4,0.9 -4.6,0.9c-1,0 -1.1,-0.3 -1.2,-0.5c-0.1,-0.1 -0.1,-0.3 -0.1,-0.4c0.1,-0.2 0.3,-0.5 0.8,-0.9c0.4,0.4 0.9,0.6 1.3,0.8c0.4,0.2 0.9,0.3 1.4,0.3c0.2,0 0.4,0 0.6,-0.1c0.6,-0.1 1.2,-0.4 1.6,-0.7c0.4,-0.3 0.6,-0.8 0.4,-1.2c-0.1,-0.4 -0.5,-0.6 -0.9,-0.6c-0.1,0 -0.1,0 -0.2,0c-0.2,0 -0.4,0.1 -0.6,0.1c-0.1,0 -0.2,0 -0.2,0c-0.2,0 -0.3,-0.1 -0.4,-0.2c0.2,-0.1 0.5,-0.2 0.7,-0.3c1,-0.4 1.6,-0.6 2,-1c0.1,-0.1 0.1,-0.1 0.2,-0.2c0.1,0 0.3,0.1 0.4,0.1c0.5,0.1 0.9,0.1 1.3,0.1c0.9,0 2.9,-0.1 4.5,-1.4c0.8,0.2 1.5,0.4 2.2,0.4c0.4,0 0.9,-0.1 1.3,-0.2c1.2,-0.3 2.3,-1.1 2.9,-2.3c2.2,-3.9 -1.3,-7.1 -4.2,-9.7c-1.2,-1.1 -3.1,-2.8 -3.1,-3.7c0,0 0,0 0,-0.1c0.2,0.1 0.4,0.1 0.8,0.3c0.6,0.2 1.5,0.6 2.4,0.6c1.1,0 1.9,-0.5 2.5,-1.5c0.6,-1 0.4,-1.9 0.1,-2.5c0.1,0 0.2,0 0.3,0c0.6,0 1.2,-0.3 1.6,-0.8c0.6,0 1.3,-0.1 1.8,-0.1c0.8,0 1.5,-0.7 1.5,-1.5c0,-0.7 -0.4,-1.2 -1.1,-1.4c-0.2,-0.7 -0.7,-1.1 -1.4,-1.1z" fill="#a16727"></path><path d="M13,25c-2.6,0 -2.8,-2.5 -2.9,-3.8c0,-0.3 -0.1,-0.9 -0.2,-1.1c-0.1,0.1 -0.1,0.2 -0.2,0.3c-0.1,0.1 -0.2,0.3 -0.3,0.5c-0.6,1 -1.9,1.4 -2.9,1c-0.8,-0.3 -1.8,-1.1 -2.5,-2.4c-0.2,-0.5 0,-1.1 0.4,-1.3c0.5,-0.2 1.1,0 1.3,0.4c0.4,0.7 1,1.3 1.4,1.4c0.2,0.1 0.4,0 0.5,-0.2c0.1,-0.1 0.2,-0.3 0.2,-0.4c0.3,-0.6 0.8,-1.4 2,-1.4c1.8,0 2,1.9 2.1,3c0.2,1.8 0.4,2 0.9,2c1.5,0 1.9,-2.1 2.5,-5.4c0.6,-3.4 1.3,-7.6 5,-7.6c2.7,0 3.8,1.9 4.2,4.1c2.1,0.4 3.7,2.7 4.1,4c0.2,0.8 0.2,1.6 -0.2,2.3c-0.4,0.7 -1,1.2 -1.7,1.5c-0.8,0.2 -1.6,0.2 -2.3,-0.2c-0.7,-0.4 -1.2,-1 -1.5,-1.7c0.1,-0.4 0.1,-0.9 0.1,-1.8c0,-3.7 -0.4,-6.2 -2.6,-6.2c-1.9,0 -2.4,2.4 -3,6c-0.5,3.3 -1.1,7 -4.4,7zM25,16.3c0,0.7 0,1.3 0,1.9c0,0.5 0,1 0,1.2c0.1,0.2 0.3,0.4 0.5,0.6c0.2,0.1 0.5,0.1 0.8,0.1c0.3,-0.1 0.5,-0.3 0.6,-0.5c0.1,-0.2 0.1,-0.5 0.1,-0.8c-0.2,-0.7 -1,-1.9 -2,-2.5z" fill="#432708"></path><path d="M24,16c-0.3,-0.1 -0.7,-0.1 -1.1,-0.1c-0.4,0 -0.7,0.1 -1.1,0.2c-0.3,0.1 -0.6,0.4 -0.9,0.7c-0.3,0.3 -0.4,0.7 -0.5,1.1c-0.1,-0.4 -0.1,-0.9 0,-1.4c0.1,-0.5 0.4,-0.9 0.7,-1.3c0.4,-0.4 0.8,-0.7 1.2,-0.9c0.5,-0.2 0.9,-0.4 1.5,-0.5h0.1c0.6,-0.1 1.1,0.3 1.2,0.8c0.1,0.5 -0.1,1.3 -0.6,1.4c-0.2,0 -0.4,0 -0.5,0zM3.5,18.1c-0.1,0 -0.1,0 -0.2,0c-0.2,-0.1 -0.5,-0.1 -0.8,-0.1c-0.3,0 -0.5,-0.2 -0.5,-0.5c0,-0.3 0.2,-0.5 0.5,-0.5c0.5,0 0.8,0 1.2,0.2c0.3,0.1 0.4,0.4 0.3,0.6c-0.1,0.2 -0.3,0.3 -0.5,0.3z" fill="#432708"></path><path d="M4.5,19c-0.1,0 -0.1,0 -0.2,-0.1c-0.1,0 -1.3,-0.7 -1.3,-2.4c0,-0.3 0.2,-0.5 0.5,-0.5c0.3,0 0.5,0.2 0.5,0.5c0,1.1 0.7,1.5 0.7,1.6c0.2,0.1 0.3,0.4 0.2,0.7c0,0.1 -0.2,0.2 -0.4,0.2zM34,43c-0.3,0 -0.5,-0.1 -0.7,-0.3c-0.4,-0.4 -0.4,-1 0,-1.4c0.7,-0.7 0.7,-1.4 0.7,-1.8c0,-0.2 -0.2,-0.3 -0.4,-0.4c-0.2,0 -0.4,0 -0.7,-0.1c-1,-0.1 -2.3,-0.2 -2.8,-1.2c-0.7,-1.7 1,-2.6 2.1,-3.2c1.7,-0.9 1.9,-1.2 1.6,-1.8c-0.6,-1.3 -2.8,-0.8 -6.2,0.1c-3.7,1 -7.8,2.2 -9.3,-1.3c-0.4,-1 -0.5,-2 -0.1,-2.9c0.5,-1.2 1.6,-2.1 2.8,-2.8c-0.3,-2.1 1,-4.3 2,-5.1c1.2,-1.1 3.1,-1 4.2,0.2c1.1,1.2 1,3.1 -0.2,4.2c-0.3,0.3 -0.8,0.5 -1.7,0.9c-0.6,0.3 -1.5,0.6 -2.3,1c-0.1,0.1 -0.2,0.2 -0.3,0.2c-0.1,0 -0.1,0.1 -0.2,0.1c-1,0.6 -2,1.3 -2.3,2.1c-0.2,0.4 -0.2,0.9 0.1,1.4c0.8,1.7 3.3,1.2 7,0.2c3.4,-0.9 7.2,-2 8.6,1c1,2.3 -1.2,3.6 -2.5,4.3c-0.3,0.2 -0.8,0.4 -1,0.6c0.3,0 0.6,0.1 0.9,0.1c0.3,0 0.6,0 0.8,0.1c1.2,0.2 2.1,1.2 2.1,2.3c0,0.6 0.1,2 -1.3,3.3c-0.4,0.1 -0.6,0.2 -0.9,0.2zM25,22c-0.2,0 -0.5,0.1 -0.7,0.3c-0.4,0.4 -1.2,1.5 -1.3,2.6c0.5,-0.2 1,-0.4 1.5,-0.6c0.5,-0.2 1,-0.4 1.2,-0.5c0.4,-0.3 0.4,-1 0,-1.4c-0.2,-0.3 -0.4,-0.4 -0.7,-0.4z" fill="#432708"></path><path d="M23.2,26.1c0,0.3 0.2,0.7 0.3,1c0.2,0.3 0.3,0.6 0.6,0.9c0.2,0.3 0.6,0.4 1,0.5c0.4,0.1 0.8,0.1 1.2,0c-0.4,0.2 -0.8,0.5 -1.2,0.5c-0.5,0.1 -1,0 -1.5,-0.2c-0.5,-0.2 -0.9,-0.5 -1.3,-0.8c-0.4,-0.4 -0.7,-0.7 -1,-1.2l-0.1,-0.1c-0.3,-0.5 -0.1,-1.1 0.4,-1.4c0.5,-0.3 1.1,-0.1 1.4,0.4c0.2,0.1 0.2,0.2 0.2,0.4zM32.5,45c-0.3,0 -0.5,-0.2 -0.5,-0.5v-0.5c0,-0.2 0,-0.4 0,-0.6c0,-0.3 0.3,-0.5 0.5,-0.5c0.3,0 0.5,0.2 0.5,0.5c0,0.2 0,0.3 0,0.5v0.5c0,0.4 -0.2,0.6 -0.5,0.6z" fill="#432708"></path><path d="M31.5,44c-0.3,0 -0.5,-0.2 -0.5,-0.5c0,-0.3 0.2,-0.5 0.5,-0.5c1.1,0 1.5,-0.7 1.6,-0.7c0.1,-0.2 0.4,-0.3 0.7,-0.2c0.2,0.1 0.3,0.4 0.2,0.7c-0.1,0 -0.7,1.2 -2.5,1.2zM29.4,25c-0.4,0 -0.7,0 -1,-0.1c-1.6,-0.3 -2.7,-1.9 -2.4,-3.5c0.2,-0.8 0.6,-1.5 1.3,-1.9c0.7,-0.4 1.5,-0.6 2.3,-0.5c0.4,0.1 0.8,0.3 1.7,0.9c0.6,0.4 1.4,0.8 2.2,1.2v0c0.2,0 0.3,0 0.5,0.1c0.1,0.1 0.2,0.1 0.3,0.2c0.9,0.4 1.8,0.6 2.4,0.4c0.4,-0.1 0.8,-0.4 1.1,-0.9c1,-1.7 -0.8,-3.5 -3.5,-6c-2.3,-1.8 -4.3,-3.6 -4.3,-5.7c0,-0.6 0.1,-1.2 0.4,-1.7c0.7,-1.2 1.6,-1.5 2.3,-1.5c0.8,0 1.6,0.3 2.3,0.6c0.2,0.1 0.6,0.2 0.8,0.3v0c-0.2,-0.2 -0.3,-0.4 -0.5,-0.7c-0.2,-0.4 -0.3,-0.8 -0.3,-1.2c0,-0.6 0.3,-1.1 0.9,-1.5c0.7,-0.4 2.2,-0.5 3.1,-0.5c0.6,0 1,0.4 1,1c0,0.6 -0.4,1 -1,1c-0.8,0 -1.6,0.1 -2,0.2v0c0.1,0.2 0.2,0.4 0.3,0.5c0.5,0.5 1,1.3 0.5,2.3c-0.9,1.6 -2.5,0.9 -3.6,0.4c-0.5,-0.2 -1.1,-0.4 -1.5,-0.4c-0.1,0 -0.3,0 -0.6,0.4c-0.1,0.2 -0.1,0.5 -0.1,0.7c0,1.3 1.8,2.9 3.5,4.4c2.7,2.4 5.7,5.2 4,8.4c-0.5,1 -1.3,1.6 -2.3,1.9c-1.1,0.3 -2.3,0.1 -3.4,-0.4c-1.2,1.2 -3,1.6 -4.4,1.6zM29,21c-0.2,0 -0.4,0.1 -0.6,0.2c-0.2,0.1 -0.4,0.4 -0.4,0.6c-0.1,0.5 0.3,1.1 0.8,1.2c0.5,0.1 1.9,0.1 2.9,-0.5c-0.5,-0.3 -1,-0.6 -1.5,-0.9c-0.4,-0.3 -0.9,-0.6 -1.1,-0.6c0,0 0,0 -0.1,0z" fill="#432708"></path><path d="M32.6,21.7c0.2,-0.2 0.4,-0.6 0.6,-0.9c0.2,-0.3 0.3,-0.7 0.3,-1.1c0,-0.4 0,-0.7 -0.2,-1.1c-0.1,-0.4 -0.4,-0.7 -0.8,-1c0.4,0.2 0.8,0.3 1.2,0.7c0.3,0.3 0.6,0.8 0.8,1.3c0.1,0.5 0.2,1 0.2,1.5c0,0.5 -0.1,1 -0.3,1.5v0.1c-0.2,0.5 -0.8,0.8 -1.3,0.6c-0.5,-0.2 -0.8,-0.8 -0.6,-1.3c-0.1,-0.1 0,-0.2 0.1,-0.3zM40.8,4.1c-0.2,0 -0.4,-0.2 -0.5,-0.4c0,-0.3 0.1,-0.5 0.4,-0.6c0.1,0 0.2,-0.2 0.2,-0.6c0.1,-0.3 0.3,-0.5 0.6,-0.5c0.3,0 0.5,0.2 0.5,0.5c0,0.8 -0.5,1.5 -1.2,1.6c0.1,0 0.1,0 0,0z" fill="#432708"></path><path d="M39,4.5c-0.2,0 -0.4,-0.2 -0.5,-0.4c-0.1,-0.3 0.1,-0.5 0.4,-0.6c0.1,0 2.1,-0.5 3.6,-0.5c0.3,0 0.5,0.2 0.5,0.5c0,0.3 -0.2,0.5 -0.5,0.5c-1.4,0 -3.4,0.5 -3.4,0.5z" fill="#432708"></path></g></g></svg>